<svg width="22.500000" height="18.500000" viewBox="0 0 22.5 18.5" fill="none" xmlns="http://www.w3.org/2000/svg" xmlns:xlink="http://www.w3.org/1999/xlink">
	<desc>
			Created with Pixso.
	</desc>
	<defs/>
	<path id="Vector" d="M0 1.25C0 0.559645 0.55957 0 1.25 0L21.25 0C21.9404 0 22.5 0.559645 22.5 1.25C22.5 1.94036 21.9404 2.5 21.25 2.5L1.25 2.5C0.55957 2.5 0 1.94036 0 1.25ZM0 9.25C0 8.55964 0.55957 8 1.25 8L21.25 8C21.9404 8 22.5 8.55964 22.5 9.25C22.5 9.94036 21.9404 10.5 21.25 10.5L1.25 10.5C0.55957 10.5 0 9.94036 0 9.25ZM1.25 16C0.55957 16 0 16.5596 0 17.25C0 17.9404 0.55957 18.5 1.25 18.5L15.25 18.5C15.9404 18.5 16.5 17.9404 16.5 17.25C16.5 16.5596 15.9404 16 15.25 16L1.25 16Z" fill="#FFFFFF" fill-opacity="1.000000" fill-rule="evenodd"/>
</svg>
