<svg width="28.000000" height="24.000000" viewBox="0 0 28 24" fill="none" xmlns="http://www.w3.org/2000/svg" xmlns:xlink="http://www.w3.org/1999/xlink">
	<desc>
			Created with Pixso.
	</desc>
	<defs/>
	<path id="Vector" d="M0 2C0 0.895432 0.895432 0 2 0L26 0C27.1046 0 28 0.895432 28 2C28 3.10457 27.1046 4 26 4L2 4C0.895432 4 0 3.10457 0 2ZM0 12C0 10.8954 0.895432 10 2 10L26 10C27.1046 10 28 10.8954 28 12C28 13.1046 27.1046 14 26 14L2 14C0.895432 14 0 13.1046 0 12ZM2 20C0.895432 20 0 20.8954 0 22C0 23.1046 0.895432 24 2 24L26 24C27.1046 24 28 23.1046 28 22C28 20.8954 27.1046 20 26 20L2 20Z" fill="#FFFFFF" fill-opacity="1.000000" fill-rule="evenodd"/>
</svg>
