<svg width="28.000000" height="28.000000" viewBox="0 0 28 28" fill="none" xmlns="http://www.w3.org/2000/svg" xmlns:xlink="http://www.w3.org/1999/xlink">
	<desc>
			Created with Pixso.
	</desc>
	<defs>
		<clipPath id="clip13_127">
			<rect id="cart" width="28.000000" height="28.000000" fill="white" fill-opacity="0"/>
		</clipPath>
	</defs>
	<g clip-path="url(#clip13_127)">
		<path id="Vector" d="M5 3C4.01733 3 3.11768 3.08496 2.45435 3.22729C2.12646 3.29736 1.83521 3.38599 1.61499 3.49756C1.5083 3.55151 1.38818 3.62573 1.28491 3.73389C1.19995 3.823 1 4.06909 1 4.5C1 4.93091 1.19995 5.177 1.28491 5.26611C1.38818 5.37427 1.5083 5.44849 1.61499 5.50244C1.83521 5.61401 2.12646 5.70264 2.45435 5.77271C3.11768 5.91504 4.01733 6 5 6C5.98267 6 6.88232 5.91504 7.54565 5.77271C7.87354 5.70264 8.16479 5.61401 8.38501 5.50244C8.4917 5.44849 8.61182 5.37427 8.71509 5.26611C8.80005 5.177 9 4.93091 9 4.5C9 4.06909 8.80005 3.823 8.71509 3.73389C8.61182 3.62573 8.4917 3.55151 8.38501 3.49756C8.16479 3.38599 7.87354 3.29736 7.54565 3.22729C6.88232 3.08496 5.98267 3 5 3ZM11.5037 18.8481C10.99 18.9355 10.4895 18.6353 10.3247 18.1411L6.84692 7.70752C6.73169 7.36206 6.99268 7.00659 7.35693 7.01294L26.0195 7.33374C26.3289 7.33911 26.5591 7.62134 26.5024 7.92578L25.0208 15.8481C24.9397 16.2827 24.5959 16.6206 24.1602 16.6948L11.5037 18.8481ZM10.75 25C11.9927 25 13 23.9927 13 22.75C13 21.5073 11.9927 20.5 10.75 20.5C9.50732 20.5 8.5 21.5073 8.5 22.75C8.5 23.9927 9.50732 25 10.75 25ZM26 22.75C26 23.9927 24.9927 25 23.75 25C22.5073 25 21.5 23.9927 21.5 22.75C21.5 21.5073 22.5073 20.5 23.75 20.5C24.9927 20.5 26 21.5073 26 22.75Z" fill="#CCCCCC" fill-opacity="1.000000" fill-rule="evenodd"/>
	</g>
</svg>
