<svg width="28.000000" height="28.000000" viewBox="0 0 28 28" fill="none" xmlns="http://www.w3.org/2000/svg" xmlns:xlink="http://www.w3.org/1999/xlink">
	<desc>
			Created with Pixso.
	</desc>
	<defs>
		<clipPath id="clip13_122">
			<rect id="catalog" width="28.000000" height="28.000000" fill="white" fill-opacity="0"/>
		</clipPath>
	</defs>
	<rect id="catalog" width="28.000000" height="28.000000" fill="#FFFFFF" fill-opacity="1.000000"/>
	<g clip-path="url(#clip13_122)">
		<path id="Subtract" d="M19.7961 17.5L22.6846 20.3884C22.7212 20.425 22.7568 20.4622 22.7915 20.5L26.5 20.5C27.3284 20.5 28 19.8284 28 19C28 18.1716 27.3284 17.5 26.5 17.5L19.7961 17.5ZM19.6279 8.5C19.2007 7.40356 18.6025 6.39258 17.8662 5.5L26.5 5.5C27.3284 5.5 28 6.17163 28 7C28 7.82837 27.3284 8.5 26.5 8.5L19.6279 8.5ZM20.3735 12.4868C20.3735 12.1541 20.3586 11.825 20.3298 11.5L26.5 11.5C27.3284 11.5 28 12.1716 28 13C28 13.8284 27.3284 14.5 26.5 14.5L20.1892 14.5C20.3103 13.8467 20.3735 13.1736 20.3735 12.4868Z" clip-rule="evenodd" fill="#CCCCCC" fill-opacity="1.000000" fill-rule="evenodd"/>
		<path id="Union" d="M3.8999 12.4868C3.8999 9.45654 6.35645 7 9.38672 7C12.4167 7 14.8733 9.45654 14.8733 12.4868C14.8733 15.5168 12.4167 17.9734 9.38672 17.9734C6.35645 17.9734 3.8999 15.5168 3.8999 12.4868ZM0.399902 12.4868C0.399902 7.52344 4.42334 3.5 9.38672 3.5C14.3499 3.5 18.3733 7.52344 18.3733 12.4868C18.3733 13.8372 18.0754 15.1179 17.542 16.2671C17.2158 16.9692 17.2876 17.8201 17.8347 18.3674L21.2703 21.8027C21.8872 22.4197 21.8872 23.4202 21.2703 24.0374C20.6531 24.6543 19.6526 24.6543 19.0356 24.0374L15.7117 20.7131C15.1411 20.1428 14.2456 20.0908 13.53 20.4634C12.2903 21.1086 10.8811 21.4734 9.38672 21.4734C4.42334 21.4734 0.399902 17.45 0.399902 12.4868Z" fill="#CCCCCC" fill-opacity="1.000000" fill-rule="evenodd"/>
	</g>
</svg>
