<svg width="14.728516" height="14.728027" viewBox="0 0 14.7285 14.728" fill="none" xmlns="http://www.w3.org/2000/svg" xmlns:xlink="http://www.w3.org/1999/xlink">
	<desc>
			Created with Pixso.
	</desc>
	<defs/>
	<path id="Union" d="M0.292969 14.4351C-0.0976562 14.0445 -0.0976562 13.4113 0.292969 13.0208L5.94971 7.36377L0.293457 1.70721C-0.097168 1.31671 -0.097168 0.683533 0.293457 0.292969C0.684082 -0.0975342 1.31689 -0.0975342 1.70752 0.292969L7.36426 5.94958L13.021 0.292908C13.4111 -0.0976562 14.0444 -0.0976562 14.4351 0.292908C14.8257 0.683411 14.8257 1.31659 14.4351 1.70709L8.77832 7.36377L14.4355 13.0209C14.8262 13.4114 14.8262 14.0446 14.4355 14.4351C14.0449 14.8257 13.4116 14.8257 13.0215 14.4351L7.36426 8.77802L1.70703 14.4351C1.31641 14.8256 0.683594 14.8256 0.292969 14.4351Z" clip-rule="evenodd" fill="#9797AF" fill-opacity="1.000000" fill-rule="evenodd"/>
</svg>
