<svg width="28.000000" height="28.000000" viewBox="0 0 28 28" fill="none" xmlns="http://www.w3.org/2000/svg" xmlns:xlink="http://www.w3.org/1999/xlink">
	<desc>
			Created with Pixso.
	</desc>
	<defs>
		<clipPath id="clip13_118">
			<rect id="main" width="28.000000" height="28.000000" fill="white" fill-opacity="0"/>
		</clipPath>
	</defs>
	<g clip-path="url(#clip13_118)">
		<path id="Union" d="M13.293 3.69507L3.39258 13.4302C2.4353 14.3716 3.10181 15.9998 4.44409 15.9998L5 15.9998L5 22C5 23.1045 5.89551 24 7 24L11.25 24C11.5261 24 11.75 23.7761 11.75 23.5L11.75 20.4102C11.75 19.3054 12.6455 18.4102 13.75 18.4102L14.25 18.4102C15.3545 18.4102 16.25 19.3054 16.25 20.4102L16.25 23.5C16.25 23.7761 16.4739 24 16.75 24L21 24C22.1045 24 23 23.1045 23 22L23 15.9998L23.3787 15.9998C24.7151 15.9998 25.3843 14.384 24.4395 13.4392L14.7012 3.70117C14.313 3.31299 13.6812 3.30688 13.293 3.69507Z" clip-rule="evenodd" fill="#CCCCCC" fill-opacity="1.000000" fill-rule="evenodd"/>
	</g>
</svg>
