<svg width="32.000000" height="24.000000" viewBox="0 0 32 24" fill="none" xmlns="http://www.w3.org/2000/svg" xmlns:xlink="http://www.w3.org/1999/xlink">
	<desc>
			Created with Pixso.
	</desc>
	<defs/>
	<rect id="Frame 277132129" rx="4.000000" width="32.000000" height="24.000000" fill="#F6F6FA" fill-opacity="1.000000"/>
	<path id="Vector" d="M18.8882 17.5017L12.7637 17.5017L12.7637 6.49487L18.8887 6.49487L18.8882 17.5017Z" fill="#6C6BBD" fill-opacity="1.000000" fill-rule="evenodd"/>
	<path id="Vector" d="M13.1514 12.0001C13.1514 9.7674 14.1968 7.77844 15.8247 6.4967C14.5928 5.52521 13.0684 4.99768 11.499 5C7.63379 5 4.5 8.13403 4.5 12.0001C4.5 15.8661 7.63379 19.0002 11.499 19.0002C13.0684 19.0025 14.5928 18.4749 15.8247 17.5035C14.1973 16.2219 13.1514 14.2329 13.1514 12.0001Z" fill="#EB001B" fill-opacity="1.000000" fill-rule="evenodd"/>
	<path id="Vector" d="M27.1494 12.0001C27.1494 15.8661 24.0161 19.0002 20.1504 19.0002C18.5815 19.0024 17.0566 18.4749 15.8242 17.5035C17.4526 16.2217 18.498 14.2329 18.498 12.0001C18.498 9.76721 17.4526 7.77844 15.8242 6.4967C17.0566 5.52521 18.5815 4.99774 20.1504 5C24.0161 5 27.1494 8.13403 27.1494 12.0001Z" fill="#0099DF" fill-opacity="1.000000" fill-rule="evenodd"/>
</svg>
