<svg width="32.000000" height="24.000000" viewBox="0 0 32 24" fill="none" xmlns="http://www.w3.org/2000/svg" xmlns:xlink="http://www.w3.org/1999/xlink">
	<desc>
			Created with Pixso.
	</desc>
	<defs/>
	<rect id="Frame 277132129" rx="4.000000" width="32.000000" height="24.000000" fill="#F6F6FA" fill-opacity="1.000000"/>
	<path id="Vector" d="M26.9336 16.3367L26.9336 16.0649L26.8628 16.0649L26.7812 16.2514L26.6997 16.0649L26.6284 16.0649L26.6284 16.3367L26.6787 16.3367L26.6787 16.132L26.7554 16.3086L26.8076 16.3086L26.8838 16.1315L26.8838 16.3367L26.9341 16.3367L26.9336 16.3367ZM26.4849 16.3367L26.4849 16.1115L26.5752 16.1115L26.5752 16.0656L26.3438 16.0656L26.3438 16.1115L26.4346 16.1115L26.4346 16.3367L26.4849 16.3367Z" fill="#F79410" fill-opacity="1.000000" fill-rule="evenodd"/>
	<path id="Vector" d="M18.8882 17.5015L12.7637 17.5015L12.7637 6.49463L18.8887 6.49463L18.8882 17.5015Z" fill="#FF5F00" fill-opacity="1.000000" fill-rule="evenodd"/>
	<path id="Vector" d="M13.1514 11.9999C13.1514 9.76715 14.1968 7.7782 15.8247 6.49646C14.5928 5.52496 13.0684 4.99744 11.499 4.99976C7.63379 4.99976 4.5 8.13379 4.5 11.9999C4.5 15.8659 7.63379 18.9999 11.499 18.9999C13.0684 19.0023 14.5928 18.4747 15.8247 17.5032C14.1973 16.2217 13.1514 14.2327 13.1514 11.9999Z" fill="#EB001B" fill-opacity="1.000000" fill-rule="evenodd"/>
	<path id="Vector" d="M27.1494 11.9999C27.1494 15.8659 24.0161 18.9999 20.1504 18.9999C18.5815 19.0022 17.0566 18.4747 15.8242 17.5032C17.4526 16.2215 18.498 14.2327 18.498 11.9999C18.498 9.76697 17.4526 7.7782 15.8242 6.49646C17.0566 5.52496 18.5815 4.9975 20.1504 4.99976C24.0161 4.99976 27.1494 8.13379 27.1494 11.9999Z" fill="#F79410" fill-opacity="1.000000" fill-rule="evenodd"/>
</svg>
