<svg width="20.141113" height="20.142700" viewBox="0 0 20.1411 20.1427" fill="none" xmlns="http://www.w3.org/2000/svg" xmlns:xlink="http://www.w3.org/1999/xlink">
	<desc>
			Created with Pixso.
	</desc>
	<defs/>
	<path id="Vector" d="M1.99878 8C1.99878 6.4087 2.6311 4.88258 3.7561 3.75736C4.88135 2.63214 6.40747 2 7.99878 2C9.59009 2 11.1162 2.63214 12.2415 3.75736C13.3667 4.88258 13.9988 6.4087 13.9988 8C13.9988 9.5913 13.3667 11.1174 12.2415 12.2426C11.1162 13.3679 9.59009 14 7.99878 14C6.40747 14 4.88135 13.3679 3.7561 12.2426C2.6311 11.1174 1.99878 9.5913 1.99878 8ZM7.99878 0C6.72583 0.000183105 5.47095 0.304218 4.33911 0.886839C3.20703 1.46946 2.23047 2.31384 1.49023 3.3498C0.750244 4.38577 0.268311 5.5834 0.0839844 6.84315C-0.100098 8.10291 0.0192871 9.38842 0.431885 10.5928C0.844482 11.7973 1.53857 12.8858 2.45654 13.768C3.37451 14.6502 4.48975 15.3006 5.70947 15.6651C6.92944 16.0296 8.21851 16.0977 9.46997 15.8638C10.7214 15.6298 11.8992 15.1006 12.9048 14.32L18.4338 19.85C18.6216 20.0375 18.876 20.1428 19.1411 20.1427C19.4065 20.1426 19.6609 20.0371 19.8484 19.8495C20.0359 19.6619 20.1411 19.4074 20.1411 19.1421C20.1409 18.8769 20.0354 18.6225 19.8479 18.435L14.3179 12.905C15.2356 11.7225 15.8032 10.3063 15.9561 8.81726C16.1091 7.32825 15.8411 5.82621 15.1829 4.48188C14.5247 3.13754 13.5024 2.00485 12.2324 1.21256C10.9624 0.420273 9.49561 0.000165939 7.99878 0Z" fill="#FFFFFF" fill-opacity="1.000000" fill-rule="evenodd"/>
</svg>
