<svg width="11.000000" height="10.632416" viewBox="0 0 11 10.6324" fill="none" xmlns="http://www.w3.org/2000/svg" xmlns:xlink="http://www.w3.org/1999/xlink">
	<desc>
			Created with Pixso.
	</desc>
	<defs/>
	<path id="Path (Stroke)" d="M6.19775 0.465622C5.93799 -0.155197 5.06201 -0.155212 4.80225 0.465591L6.19775 0.465622ZM4.80225 0.465591L3.64697 3.22618L0.691895 3.48254C0.019043 3.54108 -0.237793 4.37607 0.259766 4.81105L2.50537 6.77556L1.83203 9.69878C1.68457 10.3402 2.37793 10.8731 2.96143 10.5187L5.50049 8.97252L8.03809 10.5179C8.62256 10.8752 9.31592 10.3391 9.16846 9.69902L8.49561 6.77556L10.7402 4.81178C11.2383 4.37602 10.9795 3.5416 10.3081 3.48308L7.35303 3.2267L6.19775 0.465622L4.80225 0.465591Z" fill="#FF970D" fill-opacity="1.000000" fill-rule="evenodd"/>
</svg>
