<svg width="32.000000" height="24.000000" viewBox="0 0 32 24" fill="none" xmlns="http://www.w3.org/2000/svg" xmlns:xlink="http://www.w3.org/1999/xlink">
	<desc>
			Created with Pixso.
	</desc>
	<defs/>
	<rect id="Frame 277132129" rx="4.000000" width="32.000000" height="24.000000" fill="#F6F6FA" fill-opacity="1.000000"/>
	<path id="visa" d="M16.4707 10.1781C16.4531 11.5858 17.7256 12.3713 18.6836 12.8383C19.6685 13.3176 19.9995 13.6249 19.9956 14.0533C19.9883 14.7092 19.21 14.9987 18.4819 15.0099C17.2114 15.0296 16.4727 14.6669 15.8853 14.3926L15.4277 16.534C16.0171 16.8057 17.1079 17.0424 18.2393 17.0528C20.895 17.0528 22.6323 15.7419 22.6416 13.7094C22.6519 11.1301 19.0737 10.9872 19.0981 9.83423C19.1064 9.48468 19.4404 9.11157 20.1714 9.01666C20.5332 8.96881 21.5317 8.93213 22.6641 9.45361L23.1089 7.38171C22.5 7.15991 21.7173 6.94751 20.7427 6.94751C18.2432 6.94751 16.4849 8.27618 16.4707 10.1781ZM27.3794 7.12604C26.8945 7.12604 26.4858 7.40894 26.3037 7.84302L22.5103 16.9005L25.1636 16.9005L25.6919 15.4412L28.9346 15.4412L29.2412 16.9005L31.5801 16.9005L29.5391 7.12604L27.3794 7.12604ZM27.7505 9.76654L28.5166 13.4369L26.4194 13.4369L27.7505 9.76654ZM13.2534 7.12604L11.1616 16.9005L13.6904 16.9005L15.7812 7.12604L13.2534 7.12604ZM9.5127 7.12604L6.88037 13.7789L5.81592 8.12207C5.69092 7.49066 5.19775 7.12604 4.6499 7.12604L0.347168 7.12604L0.287109 7.40985C1.17041 7.6015 2.17383 7.91071 2.78174 8.24146C3.15381 8.44348 3.26025 8.62012 3.38232 9.10028L5.39893 16.9005L8.07129 16.9005L12.168 7.12604L9.5127 7.12604Z" fill="#1434CB" fill-opacity="1.000000" fill-rule="evenodd"/>
</svg>
